<svg xmlns="http://www.w3.org/2000/svg" xmlns:xlink="http://www.w3.org/1999/xlink" version="1.1" class="marks" width="955" height="431" viewBox="0 0 955 431"><rect width="955" height="431" fill="white"/><g fill="none" stroke-miterlimit="10" transform="translate(54,48)"><g class="mark-group role-frame root" role="graphics-object" aria-roledescription="group mark container"><g transform="translate(0,0)"><path class="background" aria-hidden="true" d="M0,0h0v0h0Z"/><g><g class="mark-group role-column-title facet-title" role="graphics-object" aria-roledescription="group mark container"><g transform="translate(400,-22)"><path class="background" aria-hidden="true" d="M0,0h0v0h0Z"/><g><g class="mark-group role-title"><g transform="translate(0,-21)"><path class="background" aria-hidden="true" d="M0,0h0v0h0Z" pointer-events="none"/><g><g class="mark-text role-title-text" role="graphics-symbol" aria-roledescription="title" aria-label="Title text 'building_class'" pointer-events="none"><text text-anchor="middle" transform="translate(0,9)" font-family="sans-serif" font-size="11px" font-weight="bold" fill="#000" opacity="1">building_class</text></g></g><path class="foreground" aria-hidden="true" d="" pointer-events="none" display="none"/></g></g></g><path class="foreground" aria-hidden="true" d="" display="none"/></g></g><g class="mark-group role-row-header row_header" role="graphics-object" aria-roledescription="group mark container"><g transform="translate(-1,0)"><path class="background" aria-hidden="true" d="M0,0h0v150h0Z"/><g><g class="mark-group role-axis" role="graphics-symbol" aria-roledescription="axis" aria-label="Y-axis titled 'site_eui' for a linear scale with values from 0 to 1,000"><g transform="translate(0.5,0.5)"><path class="background" aria-hidden="true" d="M0,0h0v0h0Z" pointer-events="none"/><g><g class="mark-rule role-axis-tick" pointer-events="none"><line transform="translate(0,150)" x2="-5" y2="0" stroke="#888" stroke-width="1" opacity="1"/><line transform="translate(0,120)" x2="-5" y2="0" stroke="#888" stroke-width="1" opacity="1"/><line transform="translate(0,90)" x2="-5" y2="0" stroke="#888" stroke-width="1" opacity="1"/><line transform="translate(0,60)" x2="-5" y2="0" stroke="#888" stroke-width="1" opacity="1"/><line transform="translate(0,30)" x2="-5" y2="0" stroke="#888" stroke-width="1" opacity="1"/><line transform="translate(0,0)" x2="-5" y2="0" stroke="#888" stroke-width="1" opacity="1"/></g><g class="mark-text role-axis-label" pointer-events="none"><text text-anchor="end" transform="translate(-7,153)" font-family="sans-serif" font-size="10px" fill="#000" opacity="1">0</text><text text-anchor="end" transform="translate(-7,123)" font-family="sans-serif" font-size="10px" fill="#000" opacity="1">200</text><text text-anchor="end" transform="translate(-7,93)" font-family="sans-serif" font-size="10px" fill="#000" opacity="1">400</text><text text-anchor="end" transform="translate(-7,63)" font-family="sans-serif" font-size="10px" fill="#000" opacity="1">600</text><text text-anchor="end" transform="translate(-7,32.99999999999999)" font-family="sans-serif" font-size="10px" fill="#000" opacity="1">800</text><text text-anchor="end" transform="translate(-7,3)" font-family="sans-serif" font-size="10px" fill="#000" opacity="1">1,000</text></g><g class="mark-rule role-axis-domain" pointer-events="none"><line transform="translate(0,150)" x2="0" y2="-150" stroke="#888" stroke-width="1" opacity="1"/></g><g class="mark-text role-axis-title" pointer-events="none"><text text-anchor="middle" transform="translate(-36.0244140625,75) rotate(-90) translate(0,-2)" font-family="sans-serif" font-size="11px" font-weight="bold" fill="#000" opacity="1">site_eui</text></g></g><path class="foreground" aria-hidden="true" d="" pointer-events="none" display="none"/></g></g></g><path class="foreground" aria-hidden="true" d="" display="none"/></g><g transform="translate(-1,194)"><path class="background" aria-hidden="true" d="M0,0h0v150h0Z"/><g><g class="mark-group role-axis" role="graphics-symbol" aria-roledescription="axis" aria-label="Y-axis titled 'site_eui' for a linear scale with values from 0 to 1,000"><g transform="translate(0.5,0.5)"><path class="background" aria-hidden="true" d="M0,0h0v0h0Z" pointer-events="none"/><g><g class="mark-rule role-axis-tick" pointer-events="none"><line transform="translate(0,150)" x2="-5" y2="0" stroke="#888" stroke-width="1" opacity="1"/><line transform="translate(0,120)" x2="-5" y2="0" stroke="#888" stroke-width="1" opacity="1"/><line transform="translate(0,90)" x2="-5" y2="0" stroke="#888" stroke-width="1" opacity="1"/><line transform="translate(0,60)" x2="-5" y2="0" stroke="#888" stroke-width="1" opacity="1"/><line transform="translate(0,30)" x2="-5" y2="0" stroke="#888" stroke-width="1" opacity="1"/><line transform="translate(0,0)" x2="-5" y2="0" stroke="#888" stroke-width="1" opacity="1"/></g><g class="mark-text role-axis-label" pointer-events="none"><text text-anchor="end" transform="translate(-7,153)" font-family="sans-serif" font-size="10px" fill="#000" opacity="1">0</text><text text-anchor="end" transform="translate(-7,123)" font-family="sans-serif" font-size="10px" fill="#000" opacity="1">200</text><text text-anchor="end" transform="translate(-7,93)" font-family="sans-serif" font-size="10px" fill="#000" opacity="1">400</text><text text-anchor="end" transform="translate(-7,63)" font-family="sans-serif" font-size="10px" fill="#000" opacity="1">600</text><text text-anchor="end" transform="translate(-7,32.99999999999999)" font-family="sans-serif" font-size="10px" fill="#000" opacity="1">800</text><text text-anchor="end" transform="translate(-7,3)" font-family="sans-serif" font-size="10px" fill="#000" opacity="1">1,000</text></g><g class="mark-rule role-axis-domain" pointer-events="none"><line transform="translate(0,150)" x2="0" y2="-150" stroke="#888" stroke-width="1" opacity="1"/></g><g class="mark-text role-axis-title" pointer-events="none"><text text-anchor="middle" transform="translate(-36.0244140625,75) rotate(-90) translate(0,-2)" font-family="sans-serif" font-size="11px" font-weight="bold" fill="#000" opacity="1">site_eui</text></g></g><path class="foreground" aria-hidden="true" d="" pointer-events="none" display="none"/></g></g></g><path class="foreground" aria-hidden="true" d="" display="none"/></g></g><g class="mark-group role-column-footer column_footer" role="graphics-object" aria-roledescription="group mark container"><g transform="translate(0,346)"><path class="background" aria-hidden="true" d="M0,0h800v0h-800Z"/><g><g class="mark-group role-axis" role="graphics-symbol" aria-roledescription="axis" aria-label="X-axis titled 'ELEVATION (binned)' for a linear scale with values from −50 to 1,950"><g transform="translate(0.5,0.5)"><path class="background" aria-hidden="true" d="M0,0h0v0h0Z" pointer-events="none"/><g><g class="mark-rule role-axis-tick" pointer-events="none"><line transform="translate(20,0)" x2="0" y2="5" stroke="#888" stroke-width="1" opacity="1"/><line transform="translate(60,0)" x2="0" y2="5" stroke="#888" stroke-width="1" opacity="1"/><line transform="translate(100,0)" x2="0" y2="5" stroke="#888" stroke-width="1" opacity="1"/><line transform="translate(140,0)" x2="0" y2="5" stroke="#888" stroke-width="1" opacity="1"/><line transform="translate(180,0)" x2="0" y2="5" stroke="#888" stroke-width="1" opacity="1"/><line transform="translate(220,0)" x2="0" y2="5" stroke="#888" stroke-width="1" opacity="1"/><line transform="translate(260,0)" x2="0" y2="5" stroke="#888" stroke-width="1" opacity="1"/><line transform="translate(300,0)" x2="0" y2="5" stroke="#888" stroke-width="1" opacity="1"/><line transform="translate(340,0)" x2="0" y2="5" stroke="#888" stroke-width="1" opacity="1"/><line transform="translate(380,0)" x2="0" y2="5" stroke="#888" stroke-width="1" opacity="1"/><line transform="translate(420,0)" x2="0" y2="5" stroke="#888" stroke-width="1" opacity="1"/><line transform="translate(460,0)" x2="0" y2="5" stroke="#888" stroke-width="1" opacity="1"/><line transform="translate(500,0)" x2="0" y2="5" stroke="#888" stroke-width="1" opacity="1"/><line transform="translate(540,0)" x2="0" y2="5" stroke="#888" stroke-width="1" opacity="1"/><line transform="translate(580,0)" x2="0" y2="5" stroke="#888" stroke-width="1" opacity="1"/><line transform="translate(620,0)" x2="0" y2="5" stroke="#888" stroke-width="1" opacity="1"/><line transform="translate(660,0)" x2="0" y2="5" stroke="#888" stroke-width="1" opacity="1"/><line transform="translate(700,0)" x2="0" y2="5" stroke="#888" stroke-width="1" opacity="1"/><line transform="translate(740,0)" x2="0" y2="5" stroke="#888" stroke-width="1" opacity="1"/><line transform="translate(780,0)" x2="0" y2="5" stroke="#888" stroke-width="1" opacity="1"/></g><g class="mark-text role-axis-label" pointer-events="none"><text text-anchor="middle" transform="translate(20,15)" font-family="sans-serif" font-size="10px" fill="#000" opacity="1">0</text><text text-anchor="middle" transform="translate(60,15)" font-family="sans-serif" font-size="10px" fill="#000" opacity="1">100</text><text text-anchor="middle" transform="translate(100,15)" font-family="sans-serif" font-size="10px" fill="#000" opacity="1">200</text><text text-anchor="middle" transform="translate(140,15)" font-family="sans-serif" font-size="10px" fill="#000" opacity="1">300</text><text text-anchor="middle" transform="translate(180,15)" font-family="sans-serif" font-size="10px" fill="#000" opacity="1">400</text><text text-anchor="middle" transform="translate(220.00000000000003,15)" font-family="sans-serif" font-size="10px" fill="#000" opacity="1">500</text><text text-anchor="middle" transform="translate(260,15)" font-family="sans-serif" font-size="10px" fill="#000" opacity="1">600</text><text text-anchor="middle" transform="translate(300,15)" font-family="sans-serif" font-size="10px" fill="#000" opacity="1">700</text><text text-anchor="middle" transform="translate(340,15)" font-family="sans-serif" font-size="10px" fill="#000" opacity="1">800</text><text text-anchor="middle" transform="translate(380,15)" font-family="sans-serif" font-size="10px" fill="#000" opacity="1">900</text><text text-anchor="middle" transform="translate(420,15)" font-family="sans-serif" font-size="10px" fill="#000" opacity="1">1,000</text><text text-anchor="middle" transform="translate(459.99999999999994,15)" font-family="sans-serif" font-size="10px" fill="#000" opacity="1">1,100</text><text text-anchor="middle" transform="translate(500,15)" font-family="sans-serif" font-size="10px" fill="#000" opacity="1">1,200</text><text text-anchor="middle" transform="translate(540,15)" font-family="sans-serif" font-size="10px" fill="#000" opacity="1">1,300</text><text text-anchor="middle" transform="translate(580,15)" font-family="sans-serif" font-size="10px" fill="#000" opacity="1">1,400</text><text text-anchor="middle" transform="translate(620,15)" font-family="sans-serif" font-size="10px" fill="#000" opacity="1">1,500</text><text text-anchor="middle" transform="translate(660,15)" font-family="sans-serif" font-size="10px" fill="#000" opacity="1">1,600</text><text text-anchor="middle" transform="translate(700,15)" font-family="sans-serif" font-size="10px" fill="#000" opacity="1">1,700</text><text text-anchor="middle" transform="translate(740,15)" font-family="sans-serif" font-size="10px" fill="#000" opacity="1">1,800</text><text text-anchor="middle" transform="translate(780,15)" font-family="sans-serif" font-size="10px" fill="#000" opacity="1">1,900</text></g><g class="mark-rule role-axis-domain" pointer-events="none"><line transform="translate(0,0)" x2="800" y2="0" stroke="#888" stroke-width="1" opacity="1"/></g><g class="mark-text role-axis-title" pointer-events="none"><text text-anchor="middle" transform="translate(400,30)" font-family="sans-serif" font-size="11px" font-weight="bold" fill="#000" opacity="1">ELEVATION (binned)</text></g></g><path class="foreground" aria-hidden="true" d="" pointer-events="none" display="none"/></g></g></g><path class="foreground" aria-hidden="true" d="" display="none"/></g></g><g class="mark-group role-scope cell" role="graphics-object" aria-roledescription="group mark container"><g transform="translate(0,0)"><path class="background" aria-hidden="true" d="M0.5,0.5h800v150h-800Z" stroke="#ddd"/><g><g class="mark-group role-axis" aria-hidden="true"><g transform="translate(0.5,0.5)"><path class="background" aria-hidden="true" d="M0,0h0v0h0Z" pointer-events="none"/><g><g class="mark-rule role-axis-grid" pointer-events="none"><line transform="translate(0,150)" x2="800" y2="0" stroke="#ddd" stroke-width="1" opacity="1"/><line transform="translate(0,120)" x2="800" y2="0" stroke="#ddd" stroke-width="1" opacity="1"/><line transform="translate(0,90)" x2="800" y2="0" stroke="#ddd" stroke-width="1" opacity="1"/><line transform="translate(0,60)" x2="800" y2="0" stroke="#ddd" stroke-width="1" opacity="1"/><line transform="translate(0,30)" x2="800" y2="0" stroke="#ddd" stroke-width="1" opacity="1"/><line transform="translate(0,0)" x2="800" y2="0" stroke="#ddd" stroke-width="1" opacity="1"/></g></g><path class="foreground" aria-hidden="true" d="" pointer-events="none" display="none"/></g></g><g class="mark-rule role-mark child_layer_0_marks" aria-hidden="true"><line transform="translate(30,149.84955030314998)" x2="0" y2="-6.820878789899979" stroke="black"/><line transform="translate(50,149.6925556779)" x2="0" y2="-4.312858331400008" stroke="black"/><line transform="translate(70,149.8498246047)" x2="0" y2="-6.173595073575001" stroke="black"/><line transform="translate(409.99999999999994,145.2844975125)" x2="0" y2="-0.6638747681249981" stroke="black"/><line transform="translate(110.00000000000001,149.46432719565)" x2="0" y2="-9.026655670649973" stroke="black"/><line transform="translate(570,144.62688806100002)" x2="0" y2="0" stroke="black"/><line transform="translate(90,149.4732967584)" x2="0" y2="-9.124391666400015" stroke="black"/><line transform="translate(330,147.2225578635)" x2="0" y2="-2.1594668159999912" stroke="black"/><line transform="translate(229.99999999999997,146.430470283)" x2="0" y2="-0.154158405000004" stroke="black"/><line transform="translate(150,149.44472407095)" x2="0" y2="-4.321950721199983" stroke="black"/><line transform="translate(350,145.42150093799998)" x2="0" y2="-0.8678607018749744" stroke="black"/><line transform="translate(10,143.5225793895)" x2="0" y2="-0.101917947000004" stroke="black"/><line transform="translate(190,148.263538995)" x2="0" y2="-1.0069149075000041" stroke="black"/><line transform="translate(170,148.4992678065)" x2="0" y2="-1.8084174840000173" stroke="black"/><line transform="translate(130,149.840839959)" x2="0" y2="-7.811960915249983" stroke="black"/><line transform="translate(210,147.0291547605)" x2="0" y2="-0.985662101999992" stroke="black"/><line transform="translate(670,144.388913223)" x2="0" y2="0" stroke="black"/><line transform="translate(390,145.57043958)" x2="0" y2="-0.6646381605000045" stroke="black"/><line transform="translate(610,144.883746213)" x2="0" y2="0" stroke="black"/><line transform="translate(290,145.5647637195)" x2="0" y2="-2.573814358875012" stroke="black"/><line transform="translate(530,147.416724534)" x2="0" y2="-1.3423660125000083" stroke="black"/><line transform="translate(790,146.58184092)" x2="0" y2="-0.9302676344999838" stroke="black"/><line transform="translate(270,147.684519768)" x2="0" y2="-1.725254619750018" stroke="black"/><line transform="translate(310,147.595464942)" x2="0" y2="-1.2247304493750164" stroke="black"/><line transform="translate(590,146.53635085800002)" x2="0" y2="0" stroke="black"/></g><g class="mark-rule role-mark child_layer_1_marks" aria-hidden="true"><line transform="translate(30,134.981147535)" x2="0" y2="-134.661065565" stroke="black"/><line transform="translate(50,138.333575343)" x2="0" y2="-113.15709165300001" stroke="black"/><line transform="translate(70,136.18936023375)" x2="0" y2="-88.22522929875" stroke="black"/><line transform="translate(409.99999999999994,143.0414430735)" x2="0" y2="-2.2984363485000188" stroke="black"/><line transform="translate(110.00000000000001,133.79065296000002)" x2="0" y2="-129.34894092000002" stroke="black"/><line transform="translate(570,144.62688806100002)" x2="0" y2="0" stroke="black"/><line transform="translate(90,133.290865005)" x2="0" y2="-111.48994344" stroke="black"/><line transform="translate(330,141.483569079)" x2="0" y2="-6.994022408999996" stroke="black"/><line transform="translate(229.99999999999997,145.4051759475)" x2="0" y2="-0.3679034280000053" stroke="black"/><line transform="translate(150,138.23799253274998)" x2="0" y2="-29.585424282749997" stroke="black"/><line transform="translate(350,142.811954319)" x2="0" y2="-2.3623408695000023" stroke="black"/><line transform="translate(10,143.2168255485)" x2="0" y2="-0.10191794699997558" stroke="black"/><line transform="translate(190,141.93555091275002)" x2="0" y2="-15.836523222750031" stroke="black"/><line transform="translate(170,144.47110402725)" x2="0" y2="-9.622862342249988" stroke="black"/><line transform="translate(130,134.6344548525)" x2="0" y2="-113.86021733250004" stroke="black"/><line transform="translate(210,144.99206546475)" x2="0" y2="-2.6599658992499826" stroke="black"/><line transform="translate(670,144.388913223)" x2="0" y2="0" stroke="black"/><line transform="translate(390,143.00675207925)" x2="0" y2="-3.5121632782499717" stroke="black"/><line transform="translate(610,144.883746213)" x2="0" y2="0" stroke="black"/><line transform="translate(290,137.843320642875)" x2="0" y2="-2.5738143588749836" stroke="black"/><line transform="translate(530,144.1279833015)" x2="0" y2="-4.8154111739999905" stroke="black"/><line transform="translate(790,141.34399877325)" x2="0" y2="-3.759308283749988" stroke="black"/><line transform="translate(270,143.632249282125)" x2="0" y2="-0.5008254176250091" stroke="black"/><line transform="translate(310,141.104569048125)" x2="0" y2="-46.800944803125006" stroke="black"/><line transform="translate(590,146.53635085800002)" x2="0" y2="0" stroke="black"/></g><g class="mark-rect role-mark child_layer_2_marks" role="graphics-object" aria-roledescription="rect mark container"><path aria-label="site_eui: 46.475523245; upper_box_site_eui: 100.1256831; building_class: Commercial; ELEVATION (binned): 0 – 50; Count of Records: 25966" role="graphics-symbol" aria-roledescription="box" d="M30,134.981147535h10v8.047523978250013h-10Z" fill="#4c78a8"/><path aria-label="site_eui: 30.80201769; upper_box_site_eui: 77.77616438; building_class: Commercial; ELEVATION (binned): 50 – 100; Count of Records: 1609" role="graphics-symbol" aria-roledescription="box" d="M50,138.333575343h10v7.046122003499988h-10Z" fill="#4c78a8"/><path aria-label="site_eui: 42.1584697925; upper_box_site_eui: 92.070931775; building_class: Commercial; ELEVATION (binned): 100 – 150; Count of Records: 1060" role="graphics-symbol" aria-roledescription="box" d="M70,136.18936023375h10v7.486869297374994h-10Z" fill="#4c78a8"/><path aria-label="site_eui: 35.8625150375; upper_box_site_eui: 46.39037951; building_class: Commercial; ELEVATION (binned): 950 – 1000; Count of Records: 4" role="graphics-symbol" aria-roledescription="box" d="M409.99999999999994,143.0414430735h10.000000000000057v1.5791796708749928h-10.000000000000057Z" fill="#4c78a8"/><path aria-label="site_eui: 63.7488565; upper_box_site_eui: 108.0623136; building_class: Commercial; ELEVATION (binned): 200 – 250; Count of Records: 1633" role="graphics-symbol" aria-roledescription="box" d="M110.00000000000001,133.79065296000002h9.999999999999986v6.647018564999996h-9.999999999999986Z" fill="#4c78a8"/><path aria-label="site_eui: 35.82074626; upper_box_site_eui: 35.82074626; building_class: Commercial; ELEVATION (binned): 1350 – 1400; Count of Records: 1" role="graphics-symbol" aria-roledescription="box" d="M570,144.62688806100002h10v0h-10Z" fill="#4c78a8"/><path aria-label="site_eui: 64.34063272; upper_box_site_eui: 111.3942333; building_class: Commercial; ELEVATION (binned): 150 – 200; Count of Records: 1355" role="graphics-symbol" aria-roledescription="box" d="M90,133.290865005h10v7.058040086999995h-10Z" fill="#4c78a8"/><path aria-label="site_eui: 32.91272635; upper_box_site_eui: 56.77620614; building_class: Commercial; ELEVATION (binned): 750 – 800; Count of Records: 11" role="graphics-symbol" aria-roledescription="box" d="M330,141.483569079h10v3.5795219684999893h-10Z" fill="#4c78a8"/><path aria-label="site_eui: 24.82458748; upper_box_site_eui: 30.63216035; building_class: Commercial; ELEVATION (binned): 500 – 550; Count of Records: 5" role="graphics-symbol" aria-roledescription="box" d="M229.99999999999997,145.4051759475h10.000000000000028v0.871135930500003h-10.000000000000028Z" fill="#4c78a8"/><path aria-label="site_eui: 32.514844335; upper_box_site_eui: 78.413383115; building_class: Commercial; ELEVATION (binned): 300 – 350; Count of Records: 63" role="graphics-symbol" aria-roledescription="box" d="M150,138.23799253274998h10v6.884780817000035h-10Z" fill="#4c78a8"/><path aria-label="site_eui: 36.3090650925; upper_box_site_eui: 47.92030454; building_class: Commercial; ELEVATION (binned): 800 – 850; Count of Records: 6" role="graphics-symbol" aria-roledescription="box" d="M350,142.811954319h10v1.741685917125011h-10Z" fill="#4c78a8"/><path aria-label="site_eui: 43.86225705; upper_box_site_eui: 45.22116301; building_class: Commercial; ELEVATION (binned): −50 – 0; Count of Records: 2" role="graphics-symbol" aria-roledescription="box" d="M10,143.2168255485h10v0.203835894000008h-10Z" fill="#4c78a8"/><path aria-label="site_eui: 18.28917275; upper_box_site_eui: 53.762993915; building_class: Commercial; ELEVATION (binned): 400 – 450; Count of Records: 23" role="graphics-symbol" aria-roledescription="box" d="M190,141.93555091275002h10v5.3210731747499835h-10Z" fill="#4c78a8"/><path aria-label="site_eui: 22.06099785; upper_box_site_eui: 36.859306485; building_class: Commercial; ELEVATION (binned): 350 – 400; Count of Records: 14" role="graphics-symbol" aria-roledescription="box" d="M170,144.47110402725h10v2.2197462952499905h-10Z" fill="#4c78a8"/><path aria-label="site_eui: 53.140806375; upper_box_site_eui: 102.43696765; building_class: Commercial; ELEVATION (binned): 250 – 300; Count of Records: 403" role="graphics-symbol" aria-roledescription="box" d="M130,134.6344548525h10v7.39442419125001h-10Z" fill="#4c78a8"/><path aria-label="site_eui: 26.37671561; upper_box_site_eui: 33.386230235; building_class: Commercial; ELEVATION (binned): 450 – 500; Count of Records: 8" role="graphics-symbol" aria-roledescription="box" d="M210,144.99206546475h10.000000000000028v1.0514271937500155h-10.000000000000028Z" fill="#4c78a8"/><path aria-label="site_eui: 37.40724518; upper_box_site_eui: 37.40724518; building_class: Commercial; ELEVATION (binned): 1600 – 1650; Count of Records: 1" role="graphics-symbol" aria-roledescription="box" d="M670,144.388913223h10v0h-10Z" fill="#4c78a8"/><path aria-label="site_eui: 33.96132387; upper_box_site_eui: 46.621652805; building_class: Commercial; ELEVATION (binned): 900 – 950; Count of Records: 7" role="graphics-symbol" aria-roledescription="box" d="M390,143.00675207925h10v1.8990493402500022h-10Z" fill="#4c78a8"/><path aria-label="site_eui: 34.10835858; upper_box_site_eui: 34.10835858; building_class: Commercial; ELEVATION (binned): 1450 – 1500; Count of Records: 1" role="graphics-symbol" aria-roledescription="box" d="M610,144.883746213h10v0h-10Z" fill="#4c78a8"/><path aria-label="site_eui: 46.7270042625; upper_box_site_eui: 81.0445290475; building_class: Commercial; ELEVATION (binned): 650 – 700; Count of Records: 2" role="graphics-symbol" aria-roledescription="box" d="M290,137.843320642875h10v5.1476287177499955h-10Z" fill="#4c78a8"/><path aria-label="site_eui: 26.17094319; upper_box_site_eui: 39.14677799; building_class: Commercial; ELEVATION (binned): 1250 – 1300; Count of Records: 5" role="graphics-symbol" aria-roledescription="box" d="M530,144.1279833015h10v1.946375219999993h-10Z" fill="#4c78a8"/><path aria-label="site_eui: 28.98951143; upper_box_site_eui: 57.706674845; building_class: Commercial; ELEVATION (binned): 1900 – 1950; Count of Records: 7" role="graphics-symbol" aria-roledescription="box" d="M790,141.34399877325h10v4.3075745122499995h-10Z" fill="#4c78a8"/><path aria-label="site_eui: 26.938232345; upper_box_site_eui: 42.4516714525; building_class: Commercial; ELEVATION (binned): 600 – 650; Count of Records: 4" role="graphics-symbol" aria-roledescription="box" d="M270,143.632249282125h10v2.327015866124981h-10Z" fill="#4c78a8"/><path aria-label="site_eui: 24.1951033825; upper_box_site_eui: 59.3028730125; building_class: Commercial; ELEVATION (binned): 700 – 750; Count of Records: 8" role="graphics-symbol" aria-roledescription="box" d="M310,141.104569048125h10v5.26616544449999h-10Z" fill="#4c78a8"/><path aria-label="site_eui: 23.09099428; upper_box_site_eui: 23.09099428; building_class: Commercial; ELEVATION (binned): 1400 – 1450; Count of Records: 1" role="graphics-symbol" aria-roledescription="box" d="M590,146.53635085800002h10v0h-10Z" fill="#4c78a8"/></g><g class="mark-rect role-mark child_layer_3_marks" aria-hidden="true"><path d="M23,139.10404484725h14v1h-14Z" fill="white" opacity="0.7"/><path d="M43,141.9509318965h14v1h-14Z" fill="white" opacity="0.7"/><path d="M63,139.499724856h14v1h-14Z" fill="white" opacity="0.7"/><path d="M402.99999999999994,143.603459839h14v1h-14Z" fill="white" opacity="0.7"/><path d="M103.00000000000001,137.3831241805h14v1h-14Z" fill="white" opacity="0.7"/><path d="M563,144.12688806100002h14v1h-14Z" fill="white" opacity="0.7"/><path d="M83,137.12012896299998h14v1h-14Z" fill="white" opacity="0.7"/><path d="M323,142.865373625h14v1h-14Z" fill="white" opacity="0.7"/><path d="M222.99999999999997,145.042425385h14v1h-14Z" fill="white" opacity="0.7"/><path d="M143,142.285120831h14v1h-14Z" fill="white" opacity="0.7"/><path d="M343,143.586312286h14v1h-14Z" fill="white" opacity="0.7"/><path d="M3,142.8187434955h14v1h-14Z" fill="white" opacity="0.7"/><path d="M183,143.0330220745h14v1h-14Z" fill="white" opacity="0.7"/><path d="M163,145.54638723025002h14v1h-14Z" fill="white" opacity="0.7"/><path d="M123,138.311857963h14v1h-14Z" fill="white" opacity="0.7"/><path d="M203,145.3436436655h14v1h-14Z" fill="white" opacity="0.7"/><path d="M663,143.888913223h14v1h-14Z" fill="white" opacity="0.7"/><path d="M383,144.1357432975h14v1h-14Z" fill="white" opacity="0.7"/><path d="M603,144.383746213h14v1h-14Z" fill="white" opacity="0.7"/><path d="M283,139.91713500175h14v1h-14Z" fill="white" opacity="0.7"/><path d="M523,143.901403081h14v1h-14Z" fill="white" opacity="0.7"/><path d="M783,142.4881186345h14v1h-14Z" fill="white" opacity="0.7"/><path d="M263,144.0916856815h14v1h-14Z" fill="white" opacity="0.7"/><path d="M303,142.41280521475h14v1h-14Z" fill="white" opacity="0.7"/><path d="M583,146.03635085800002h14v1h-14Z" fill="white" opacity="0.7"/></g><g class="mark-group role-title"><g transform="translate(400,-20.679918029999996)"><path class="background" aria-hidden="true" d="M0,0h0v0h0Z" pointer-events="none"/><g><g class="mark-text role-title-text" role="graphics-symbol" aria-roledescription="title" aria-label="Title text 'Commercial'" pointer-events="none"><text text-anchor="middle" transform="translate(0,8)" font-family="sans-serif" font-size="10px" fill="#000" opacity="1">Commercial</text></g></g><path class="foreground" aria-hidden="true" d="" pointer-events="none" display="none"/></g></g></g><path class="foreground" aria-hidden="true" d="" display="none"/></g><g transform="translate(0,194)"><path class="background" aria-hidden="true" d="M0.5,0.5h800v150h-800Z" stroke="#ddd"/><g><g class="mark-group role-axis" aria-hidden="true"><g transform="translate(0.5,0.5)"><path class="background" aria-hidden="true" d="M0,0h0v0h0Z" pointer-events="none"/><g><g class="mark-rule role-axis-grid" pointer-events="none"><line transform="translate(0,150)" x2="800" y2="0" stroke="#ddd" stroke-width="1" opacity="1"/><line transform="translate(0,120)" x2="800" y2="0" stroke="#ddd" stroke-width="1" opacity="1"/><line transform="translate(0,90)" x2="800" y2="0" stroke="#ddd" stroke-width="1" opacity="1"/><line transform="translate(0,60)" x2="800" y2="0" stroke="#ddd" stroke-width="1" opacity="1"/><line transform="translate(0,30)" x2="800" y2="0" stroke="#ddd" stroke-width="1" opacity="1"/><line transform="translate(0,0)" x2="800" y2="0" stroke="#ddd" stroke-width="1" opacity="1"/></g></g><path class="foreground" aria-hidden="true" d="" pointer-events="none" display="none"/></g></g><g class="mark-rule role-mark child_layer_0_marks" aria-hidden="true"><line transform="translate(30,149.84950789125)" x2="0" y2="-9.049302972750013" stroke="black"/><line transform="translate(50,149.51017851705)" x2="0" y2="-3.029695246050011" stroke="black"/><line transform="translate(70,149.70542843355)" x2="0" y2="-6.3339713376749955" stroke="black"/><line transform="translate(110.00000000000001,149.4258254112)" x2="0" y2="-7.958969817450026" stroke="black"/><line transform="translate(90,148.88607395805)" x2="0" y2="-7.617806068424983" stroke="black"/><line transform="translate(130,145.850746455)" x2="0" y2="-4.17706032000001" stroke="black"/><line transform="translate(210,146.52572769600002)" x2="0" y2="0" stroke="black"/><line transform="translate(150,148.9844368098)" x2="0" y2="-2.426935962300007" stroke="black"/></g><g class="mark-rule role-mark child_layer_1_marks" aria-hidden="true"><line transform="translate(30,135.51251059575)" x2="0" y2="-134.52674952075" stroke="black"/><line transform="translate(50,144.01947078450002)" x2="0" y2="-129.56960698950007" stroke="black"/><line transform="translate(70,137.980765690125)" x2="0" y2="-24.266053360125" stroke="black"/><line transform="translate(110.00000000000001,136.03232106375)" x2="0" y2="-41.161516893750004" stroke="black"/><line transform="translate(90,135.7490801205)" x2="0" y2="-57.12916958550001" stroke="black"/><line transform="translate(130,132.11329188)" x2="0" y2="-17.274770489999995" stroke="black"/><line transform="translate(210,146.52572769600002)" x2="0" y2="0" stroke="black"/><line transform="translate(150,145.38100533375)" x2="0" y2="-15.019631493750012" stroke="black"/></g><g class="mark-rect role-mark child_layer_2_marks" role="graphics-object" aria-roledescription="rect mark container"><path aria-label="site_eui: 61.33196721; upper_box_site_eui: 96.583262695; building_class: Residential; ELEVATION (binned): 0 – 50; Count of Records: 41091" role="graphics-symbol" aria-roledescription="box" d="M30,135.51251059575h10v5.287694322749985h-10Z" fill="#f58518"/><path aria-label="site_eui: 23.46344486; upper_box_site_eui: 39.87019477; building_class: Residential; ELEVATION (binned): 50 – 100; Count of Records: 353" role="graphics-symbol" aria-roledescription="box" d="M50,144.01947078450002h10v2.461012486499982h-10Z" fill="#f58518"/><path aria-label="site_eui: 44.1902860275; upper_box_site_eui: 80.1282287325; building_class: Residential; ELEVATION (binned): 100 – 150; Count of Records: 312" role="graphics-symbol" aria-roledescription="box" d="M70,137.980765690125h10v5.390691405750005h-10Z" fill="#f58518"/><path aria-label="site_eui: 56.887629375; upper_box_site_eui: 93.117859575; building_class: Residential; ELEVATION (binned): 200 – 250; Count of Records: 923" role="graphics-symbol" aria-roledescription="box" d="M110.00000000000001,136.03232106375h9.999999999999986v5.434534529999979h-9.999999999999986Z" fill="#f58518"/><path aria-label="site_eui: 58.2115474025; upper_box_site_eui: 95.00613253; building_class: Residential; ELEVATION (binned): 150 – 200; Count of Records: 762" role="graphics-symbol" aria-roledescription="box" d="M90,135.7490801205h10v5.519187769125011h-10Z" fill="#f58518"/><path aria-label="site_eui: 55.5087591; upper_box_site_eui: 119.2447208; building_class: Residential; ELEVATION (binned): 250 – 300; Count of Records: 21" role="graphics-symbol" aria-roledescription="box" d="M130,132.11329188h10v9.560394255000006h-10Z" fill="#f58518"/><path aria-label="site_eui: 23.16181536; upper_box_site_eui: 23.16181536; building_class: Residential; ELEVATION (binned): 450 – 500; Count of Records: 1" role="graphics-symbol" aria-roledescription="box" d="M210,146.52572769600002h10.000000000000028v0h-10.000000000000028Z" fill="#f58518"/><path aria-label="site_eui: 22.94999435; upper_box_site_eui: 30.793297775; building_class: Residential; ELEVATION (binned): 300 – 350; Count of Records: 95" role="graphics-symbol" aria-roledescription="box" d="M150,145.38100533375h10v1.176495513749984h-10Z" fill="#f58518"/></g><g class="mark-rect role-mark child_layer_3_marks" aria-hidden="true"><path d="M23,137.727254098h14v1h-14Z" fill="white" opacity="0.7"/><path d="M43,145.0594648765h14v1h-14Z" fill="white" opacity="0.7"/><path d="M63,140.30734050475002h14v1h-14Z" fill="white" opacity="0.7"/><path d="M103.00000000000001,138.1862150845h14v1h-14Z" fill="white" opacity="0.7"/><path d="M83,137.830566802h14v1h-14Z" fill="white" opacity="0.7"/><path d="M123,136.1705264755h14v1h-14Z" fill="white" opacity="0.7"/><path d="M203,146.02572769600002h14v1h-14Z" fill="white" opacity="0.7"/><path d="M143,145.519773013h14v1h-14Z" fill="white" opacity="0.7"/></g><g class="mark-group role-title"><g transform="translate(400,-20.014238925)"><path class="background" aria-hidden="true" d="M0,0h0v0h0Z" pointer-events="none"/><g><g class="mark-text role-title-text" role="graphics-symbol" aria-roledescription="title" aria-label="Title text 'Residential'" pointer-events="none"><text text-anchor="middle" transform="translate(0,8)" font-family="sans-serif" font-size="10px" fill="#000" opacity="1">Residential</text></g></g><path class="foreground" aria-hidden="true" d="" pointer-events="none" display="none"/></g></g></g><path class="foreground" aria-hidden="true" d="" display="none"/></g></g><g class="mark-group role-legend" role="graphics-symbol" aria-roledescription="legend" aria-label="Symbol legend titled 'building_class' for fill color with 2 values: Commercial, Residential"><g transform="translate(819,0)"><path class="background" aria-hidden="true" d="M0,0h77v40h-77Z" pointer-events="none"/><g><g class="mark-group role-legend-entry"><g transform="translate(0,16)"><path class="background" aria-hidden="true" d="M0,0h0v0h0Z" pointer-events="none"/><g><g class="mark-group role-scope" role="graphics-object" aria-roledescription="group mark container"><g transform="translate(0,0)"><path class="background" aria-hidden="true" d="M0,0h69.33984375v11h-69.33984375Z" pointer-events="none" opacity="1"/><g><g class="mark-symbol role-legend-symbol" pointer-events="none"><path transform="translate(6,6)" d="M-5,-5h10v10h-10Z" fill="#4c78a8" stroke-width="1.5" opacity="1"/></g><g class="mark-text role-legend-label" pointer-events="none"><text text-anchor="start" transform="translate(16,9)" font-family="sans-serif" font-size="10px" fill="#000" opacity="1">Commercial</text></g></g><path class="foreground" aria-hidden="true" d="" pointer-events="none" display="none"/></g><g transform="translate(0,13)"><path class="background" aria-hidden="true" d="M0,0h69.33984375v11h-69.33984375Z" pointer-events="none" opacity="1"/><g><g class="mark-symbol role-legend-symbol" pointer-events="none"><path transform="translate(6,6)" d="M-5,-5h10v10h-10Z" fill="#f58518" stroke-width="1.5" opacity="1"/></g><g class="mark-text role-legend-label" pointer-events="none"><text text-anchor="start" transform="translate(16,9)" font-family="sans-serif" font-size="10px" fill="#000" opacity="1">Residential</text></g></g><path class="foreground" aria-hidden="true" d="" pointer-events="none" display="none"/></g></g></g><path class="foreground" aria-hidden="true" d="" pointer-events="none" display="none"/></g></g><g class="mark-text role-legend-title" pointer-events="none"><text text-anchor="start" transform="translate(0,9)" font-family="sans-serif" font-size="11px" font-weight="bold" fill="#000" opacity="1">building_class</text></g></g><path class="foreground" aria-hidden="true" d="" pointer-events="none" display="none"/></g></g></g><path class="foreground" aria-hidden="true" d="" display="none"/></g></g></g></svg>